<?xml version="1.0" standalone="no"?>
<!DOCTYPE svg PUBLIC "-//W3C//DTD SVG 20010904//EN"
 "http://www.w3.org/TR/2001/REC-SVG-20010904/DTD/svg10.dtd">
<svg version="1.0" xmlns="http://www.w3.org/2000/svg"
 width="1254.000000pt" height="1254.000000pt" viewBox="0 0 1254.000000 1254.000000"
 preserveAspectRatio="xMidYMid meet">

<g transform="translate(0.000000,1254.000000) scale(0.100000,-0.100000)"
fill="#000000" stroke="none">
<path d="M1517 10786 c-46 -17 -99 -57 -127 -96 -167 -235 -169 -1088 -3
-1320 31 -42 84 -82 132 -98 21 -7 104 -12 212 -12 l179 0 -1 -3292 0 -3293
-51 -25 c-39 -19 -57 -36 -75 -70 -23 -42 -24 -53 -21 -186 3 -137 4 -142 32
-178 15 -21 42 -46 60 -57 30 -19 116 -19 4396 -19 4280 0 4366 0 4396 19 18
11 45 36 60 57 29 37 29 38 29 189 0 144 -1 153 -24 187 -14 19 -44 47 -68 61
l-43 27 0 3290 0 3290 100 0 c98 0 100 -1 100 -23 0 -13 5 -28 11 -34 8 -8 6
-18 -6 -37 -33 -49 9 -163 65 -181 17 -5 20 -15 20 -65 0 -50 -3 -60 -20 -65
-11 -3 -32 -22 -47 -42 -51 -67 -33 -171 38 -211 26 -16 29 -22 29 -72 -1 -51
-3 -56 -33 -75 -88 -55 -86 -193 4 -243 26 -16 29 -22 29 -72 -1 -51 -3 -56
-33 -75 -88 -55 -86 -193 4 -243 26 -15 29 -22 29 -66 0 -45 -4 -52 -44 -90
-36 -33 -46 -50 -51 -87 -9 -59 11 -107 59 -144 33 -25 36 -31 36 -79 0 -47
-3 -53 -34 -73 -44 -28 -71 -96 -61 -150 5 -26 20 -51 51 -80 40 -39 44 -47
44 -92 0 -45 -3 -51 -34 -69 -23 -14 -39 -34 -51 -66 -25 -66 -14 -111 41
-163 40 -39 44 -47 44 -92 0 -41 -4 -51 -20 -56 -29 -9 -67 -64 -75 -108 -10
-54 17 -120 61 -147 32 -20 34 -25 34 -73 0 -48 -3 -54 -34 -74 -44 -28 -71
-96 -61 -150 5 -27 20 -50 51 -79 40 -38 44 -45 44 -91 0 -44 -3 -51 -30 -66
-36 -22 -70 -84 -70 -129 0 -40 28 -89 69 -119 28 -20 31 -28 31 -73 0 -47 -3
-53 -34 -73 -85 -55 -86 -172 -2 -239 33 -26 36 -34 36 -79 0 -46 -3 -52 -34
-72 -44 -28 -71 -96 -61 -150 5 -26 20 -51 51 -80 40 -39 44 -47 44 -92 0 -45
-3 -51 -34 -69 -23 -14 -39 -34 -51 -66 -25 -66 -14 -111 41 -163 40 -39 44
-47 44 -92 0 -40 -4 -51 -20 -56 -29 -9 -68 -61 -76 -101 -10 -57 11 -111 56
-142 37 -25 39 -30 40 -79 0 -48 -2 -52 -34 -71 -23 -14 -39 -34 -51 -66 -69
-179 196 -286 271 -109 28 65 6 139 -52 176 -31 20 -34 26 -33 72 0 45 3 52
32 70 88 55 86 193 -4 243 -26 15 -29 22 -29 69 0 47 3 53 31 70 36 21 69 79
69 124 0 46 -29 99 -67 121 -31 19 -33 24 -33 71 0 47 3 55 35 80 49 39 68 81
62 134 -5 51 -28 89 -68 111 -26 15 -29 22 -29 66 0 45 3 52 40 83 45 39 66
93 56 147 -8 40 -47 92 -76 101 -16 5 -20 16 -20 57 0 47 3 54 40 85 45 39 66
93 56 147 -8 40 -47 92 -76 101 -16 5 -20 16 -20 57 0 47 3 54 40 85 45 39 66
93 56 147 -8 40 -47 92 -76 101 -16 5 -20 16 -20 57 0 47 3 54 40 85 45 39 66
93 56 147 -8 40 -47 92 -76 101 -16 5 -20 16 -20 56 0 45 4 53 44 92 76 72 73
175 -6 226 -36 23 -38 28 -38 74 0 46 3 53 40 84 45 39 66 93 56 147 -8 40
-47 92 -76 101 -17 5 -20 16 -20 66 0 32 4 59 9 59 5 0 23 12 40 26 37 30 56
88 47 138 -8 39 -59 106 -82 106 -10 0 -14 15 -14 58 0 52 2 58 29 74 90 50
92 188 4 243 -30 19 -32 24 -33 78 0 31 4 57 9 57 5 0 23 12 40 26 37 30 56
88 47 138 -8 39 -59 106 -82 106 -10 0 -14 15 -14 58 1 53 3 58 33 77 88 55
86 193 -4 243 -27 16 -29 22 -29 74 0 47 3 58 20 63 29 9 68 61 76 101 4 20 2
53 -4 72 -8 24 -8 40 -2 46 6 6 10 22 10 36 0 16 12 37 31 56 83 78 119 228
139 579 14 241 -5 519 -46 679 -32 123 -101 213 -181 235 -48 14 -413 14 -448
1 -33 -12 -51 -56 -60 -142 l-7 -68 -4244 0 -4244 0 0 40 c0 71 -20 138 -47
160 -24 19 -40 20 -227 20 -142 -1 -212 -5 -239 -14z m393 -148 c0 -49 -3 -55
-35 -75 -86 -56 -119 -203 -119 -528 0 -354 29 -482 121 -540 30 -18 32 -24
33 -73 l0 -54 -182 4 c-175 3 -185 4 -217 27 -45 32 -77 106 -102 232 -70 364
-27 887 84 1008 41 44 71 50 250 51 l167 0 0 -52z m9105 36 c78 -37 114 -161
135 -475 13 -188 3 -397 -30 -609 -20 -132 -31 -173 -50 -185 -7 -4 -59 -7
-117 -6 -81 2 -110 -1 -129 -14 -18 -12 -44 -15 -102 -13 l-77 3 -3 38 c-3 34
2 43 41 80 39 36 47 51 60 112 56 248 44 774 -19 897 -8 15 -30 40 -49 55 -32
26 -35 33 -35 81 l0 52 171 0 c135 0 178 -3 204 -16z m-416 -229 c26 -34 37
-91 52 -267 9 -114 9 -182 0 -295 -15 -184 -26 -235 -56 -267 l-24 -26 -4304
0 -4304 0 -22 24 c-13 14 -30 51 -38 83 -20 82 -28 392 -14 533 13 134 24 178
52 214 l20 26 4309 0 4309 0 20 -25z m-109 -4365 l0 -3400 -4235 0 -4235 0 0
3400 0 3400 4235 0 4235 0 0 -3400z m510 3213 l0 -38 -60 0 -60 0 0 31 c0 17
3 34 7 37 3 4 30 7 60 7 l53 0 0 -37z m-10 -133 c42 -42 11 -113 -50 -113 -61
0 -92 71 -50 113 11 11 33 20 50 20 17 0 39 -9 50 -20z m0 -390 c11 -11 20
-31 20 -45 0 -26 -30 -64 -52 -66 -51 -5 -88 24 -88 67 0 33 34 64 70 64 17 0
39 -9 50 -20z m4 -392 c35 -49 4 -111 -54 -111 -58 0 -89 62 -54 111 11 16 25
22 54 22 29 0 43 -6 54 -22z m0 -390 c22 -31 20 -64 -4 -88 -41 -41 -120 -12
-120 45 0 59 91 90 124 43z m-1 -390 c38 -44 6 -111 -53 -111 -22 0 -39 7 -52
22 -59 74 43 161 105 89z m-3 -388 c11 -11 20 -31 20 -45 0 -31 -41 -75 -70
-75 -28 0 -70 43 -70 71 0 57 79 90 120 49z m-1 -396 c12 -15 21 -35 21 -46 0
-25 -44 -68 -70 -68 -28 0 -70 43 -70 71 0 13 10 33 22 46 29 31 71 30 97 -3z
m-2 -386 c13 -12 23 -32 23 -45 0 -30 -42 -73 -70 -73 -26 0 -70 43 -70 68 0
11 9 31 21 46 25 32 64 34 96 4z m3 -388 c27 -27 25 -66 -6 -96 -29 -30 -67
-27 -96 8 -23 27 -23 49 3 82 25 32 70 35 99 6z m0 -392 c11 -12 20 -32 20
-45 0 -30 -42 -73 -70 -73 -28 0 -70 43 -70 71 0 32 38 69 71 69 16 0 37 -9
49 -22z m0 -390 c11 -12 20 -32 20 -45 0 -30 -42 -73 -70 -73 -26 0 -70 43
-70 68 0 11 9 31 21 46 26 33 70 35 99 4z m0 -388 c11 -11 20 -31 20 -45 0
-31 -41 -75 -70 -75 -28 0 -70 43 -70 71 0 57 79 90 120 49z m-5 -395 c14 -13
25 -33 25 -45 0 -27 -43 -70 -70 -70 -27 0 -70 43 -70 70 0 27 43 70 70 70 11
0 32 -11 45 -25z m19 -408 c28 -80 -92 -125 -124 -47 -16 38 -2 76 32 89 33
12 81 -10 92 -42z m-14 -359 c11 -12 20 -32 20 -45 0 -30 -42 -73 -70 -73 -28
0 -70 43 -70 73 0 58 79 89 120 45z m-411 -1149 c17 -6 36 -19 41 -29 6 -10
10 -68 10 -129 0 -98 -2 -113 -20 -131 -20 -20 -33 -20 -4357 -20 l-4337 0
-23 22 c-21 20 -23 29 -23 132 1 118 7 138 51 155 36 15 8616 14 8658 0z"/>
</g>
</svg>
