<?xml version="1.0" standalone="no"?>
<!DOCTYPE svg PUBLIC "-//W3C//DTD SVG 20010904//EN"
 "http://www.w3.org/TR/2001/REC-SVG-20010904/DTD/svg10.dtd">
<svg version="1.0" xmlns="http://www.w3.org/2000/svg"
 width="1254.000000pt" height="1254.000000pt" viewBox="0 0 1254.000000 1254.000000"
 preserveAspectRatio="xMidYMid meet">

<g transform="translate(0.000000,1254.000000) scale(0.100000,-0.100000)"
fill="#000000" stroke="none">
<path d="M1984 11016 c-102 -32 -175 -102 -208 -199 -15 -44 -16 -430 -16
-4420 l0 -4372 24 -51 c34 -74 87 -127 155 -158 l59 -26 4288 2 4289 3 40 24
c61 37 104 81 133 136 l27 50 0 4400 0 4400 -23 45 c-43 84 -107 139 -191 164
-50 15 -440 16 -4295 15 -3419 0 -4249 -3 -4282 -13z m8486 -4606 l0 -4310
-4200 0 -4200 0 0 4310 0 4310 4200 0 4200 0 0 -4310z"/>
<path d="M2494 10371 c-49 -22 -80 -60 -94 -112 -8 -27 -10 -1235 -8 -3877 l3
-3837 23 -37 c13 -21 40 -48 60 -60 l37 -23 3735 0 c2054 0 3751 4 3772 8 45
9 105 69 118 117 6 22 10 1408 10 3865 0 3695 -1 3831 -19 3870 -22 48 -44 69
-94 90 -32 13 -432 15 -3769 15 -3612 0 -3734 -1 -3774 -19z m3616 -2045 l0
-1754 -39 -7 c-21 -3 -787 -5 -1702 -3 l-1664 3 -3 1758 -2 1757 1705 0 1705
0 0 -1754z m3730 0 l0 -1754 -82 -6 c-46 -3 -812 -4 -1703 -3 l-1620 2 -3
1758 -2 1757 1705 0 1705 0 0 -1754z m-3730 -3841 l0 -1755 -1702 2 -1703 3
-3 1753 -2 1752 1705 0 1705 0 0 -1755z m3728 3 l-3 -1753 -1702 -3 -1703 -2
0 1755 0 1755 1705 0 1705 0 -2 -1752z"/>
</g>
</svg>
