<svg version="1.1" id="Layer_1" xmlns="http://www.w3.org/2000/svg" xmlns:xlink="http://www.w3.org/1999/xlink" x="0px" y="0px"
	 width="100%" viewBox="0 0 1024 544" enable-background="new 0 0 1024 544" xml:space="preserve">
<path fill="#000000" opacity="1.000000" stroke="none" 
	d="
M535.582886,367.751495 
	C485.630493,376.896301 436.022583,354.781433 408.739716,311.770782 
	C395.328156,290.627869 388.388641,267.528473 389.027588,242.675156 
	C390.531616,184.169983 427.902039,136.632401 481.562378,122.526711 
	C538.497192,107.560257 595.655640,133.921570 622.247253,184.091293 
	C632.930054,204.246323 637.878052,225.849136 637.185547,248.538239 
	C635.427795,306.127014 595.379639,353.587524 540.431091,366.881592 
	C538.978149,367.233063 537.477661,367.388245 535.582886,367.751495 
M458.740021,142.268967 
	C449.959412,147.141251 441.774841,152.817169 434.653412,159.957062 
	C407.299255,187.382263 395.146545,220.425385 399.584137,258.877258 
	C402.729004,286.128052 415.040222,309.303986 434.965851,328.216339 
	C462.377441,354.234039 495.002167,365.104004 532.235046,358.613159 
	C599.577454,346.873260 641.344116,278.721405 623.175720,213.069809 
	C610.858826,168.562668 571.266113,133.204132 523.956238,128.862625 
	C501.088348,126.764099 479.566528,130.926056 458.740021,142.268967 
z"/>
<path fill="#000000" opacity="1.000000" stroke="none" 
	d="
M426.599670,415.168304 
	C437.164795,414.275818 442.675964,418.943878 443.032318,428.854065 
	C443.217804,434.012878 442.946167,439.188812 443.156158,444.345795 
	C443.312012,448.172638 441.534851,449.199677 438.032288,449.192200 
	C434.385437,449.184418 432.345947,448.223846 432.609314,444.090057 
	C432.852448,440.273834 432.783722,436.423157 432.607544,432.598907 
	C432.430908,428.763672 432.489471,424.491638 426.976471,424.290771 
	C423.108734,424.149902 421.206604,426.863953 421.099121,432.461182 
	C421.019165,436.625061 420.958008,440.793274 421.058838,444.955475 
	C421.151489,448.781281 418.830383,449.210693 415.832581,449.162354 
	C412.813171,449.113586 409.991760,449.067200 410.023529,444.902222 
	C410.059113,440.237762 410.102234,435.570923 409.992249,430.908630 
	C409.912048,427.509338 409.058502,424.424988 404.819672,424.335510 
	C400.620270,424.246826 398.802216,427.121063 398.505737,430.695435 
	C398.121216,435.330750 398.186890,440.023834 398.372559,444.679535 
	C398.519165,448.355469 396.709656,449.257233 393.498535,449.184448 
	C390.370483,449.113525 387.828094,448.745789 387.875061,444.682617 
	C387.971283,436.353088 387.895752,428.021729 387.961670,419.691681 
	C388.009644,413.628204 392.880127,415.318573 395.627136,415.891083 
	C398.760620,416.544098 401.403656,416.146820 404.201385,415.278229 
	C406.519409,414.558533 409.101746,414.178711 411.021210,415.452484 
	C416.252930,418.924255 421.173065,417.831665 426.599670,415.168304 
z"/>
<path fill="#000000" opacity="1.000000" stroke="none" 
	d="
M336.731964,423.454102 
	C339.871002,411.962708 347.269592,405.515930 357.761200,404.721954 
	C367.900543,403.954681 376.927887,409.189697 380.791534,418.077393 
	C384.383575,426.340363 382.542450,436.752014 376.351654,443.184906 
	C370.080170,449.701599 359.044647,451.474823 349.396301,447.516174 
	C341.212372,444.158325 336.672180,436.989838 336.655334,427.388519 
	C336.653290,426.223938 336.680969,425.059326 336.731964,423.454102 
M368.902618,435.322937 
	C373.551483,427.663940 372.286499,420.023712 365.726013,416.137268 
	C360.329224,412.940247 353.276428,414.380798 349.663361,419.418121 
	C345.771240,424.844543 346.723785,432.434998 351.876892,437.056824 
	C356.643768,441.332123 362.757965,440.905334 368.902618,435.322937 
z"/>
<path fill="#000000" opacity="1.000000" stroke="none" 
	d="
M460.344238,435.234192 
	C460.338684,438.526794 460.167328,441.364288 460.372986,444.174225 
	C460.641022,447.837158 459.161102,449.216309 455.498901,449.196411 
	C451.880585,449.176758 449.859039,448.238892 449.949738,444.147766 
	C450.115509,436.673065 449.967224,429.191833 449.993896,421.713501 
	C450.015167,415.757599 452.860321,413.828400 459.130615,416.129883 
	C461.097443,416.851898 462.391693,416.687897 464.163483,416.063385 
	C475.565308,412.044556 483.254242,417.537079 483.333038,429.671143 
	C483.365417,434.656647 483.144318,439.651825 483.388062,444.625427 
	C483.591522,448.776886 481.245697,449.105591 478.057495,449.156464 
	C474.654175,449.210754 472.657684,448.324005 472.826050,444.421234 
	C473.012054,440.108673 472.857330,435.781311 472.848877,431.460419 
	C472.841461,427.652344 472.145508,424.291168 467.324188,424.269592 
	C462.722626,424.249023 461.027527,427.313019 460.419067,431.281158 
	C460.244446,432.420013 460.362366,433.603699 460.344238,435.234192 
z"/>
<path fill="#000000" opacity="1.000000" stroke="none" 
	d="
M620.811890,435.107849 
	C620.747498,432.466370 620.873535,430.276764 620.577271,428.145905 
	C619.930115,423.492523 616.584412,420.542358 612.160583,420.451843 
	C607.704041,420.360687 603.574280,423.593811 603.194397,428.196960 
	C602.757141,433.494720 603.018860,438.847015 602.847107,444.171417 
	C602.779846,446.257050 603.033813,448.873779 599.785889,448.866333 
	C596.540344,448.858856 596.803345,446.349701 596.798279,444.190338 
	C596.779724,436.194336 596.709412,428.196716 596.844421,420.202820 
	C596.920837,415.676666 598.211670,414.964020 602.202087,417.346252 
	C603.527222,418.137299 604.309509,417.802887 605.348328,417.349304 
	C612.266479,414.328583 618.641479,415.066254 624.392944,420.373779 
	C628.350952,417.553589 632.392090,415.458740 637.338074,415.652771 
	C644.615662,415.938263 649.504761,419.858643 650.105164,427.075562 
	C650.614624,433.199219 650.302063,439.391541 650.344604,445.553558 
	C650.357605,447.444427 649.747314,448.890991 647.546143,448.842468 
	C645.416565,448.795563 644.744568,447.424500 644.743225,445.500641 
	C644.739563,440.336700 644.813416,435.169617 644.660767,430.009583 
	C644.479980,423.899536 641.315491,420.496643 636.049683,420.444122 
	C631.071960,420.394470 627.251892,424.172546 626.998718,429.790955 
	C626.773926,434.778961 626.950745,439.783844 626.850037,444.779236 
	C626.808533,446.837097 626.542603,448.955658 623.672974,448.865356 
	C620.781555,448.774323 620.795898,446.648743 620.794373,444.582031 
	C620.792175,441.583466 620.804626,438.584900 620.811890,435.107849 
z"/>
<path fill="#000000" opacity="1.000000" stroke="none" 
	d="
M530.971191,429.284393 
	C517.052185,429.290649 517.054321,429.290680 516.953308,442.569458 
	C516.944458,443.732269 516.939514,444.899811 516.833984,446.056091 
	C516.680664,447.736542 515.892273,448.882996 514.031921,448.918671 
	C511.993256,448.957764 510.911652,447.913574 510.888763,445.904663 
	C510.835663,441.248871 510.835938,436.592377 510.830566,431.936188 
	C510.822113,424.618866 510.829559,417.301514 510.824402,409.984192 
	C510.822815,407.702820 510.896179,405.543884 514.085327,405.561981 
	C517.504944,405.581390 517.002563,408.072205 517.036804,410.163086 
	C517.088440,413.321686 517.089539,416.483978 516.996704,419.641296 
	C516.911194,422.549591 518.126587,423.921265 521.122742,423.873383 
	C526.775574,423.782898 532.430969,423.796600 538.084717,423.844513 
	C540.824768,423.867737 541.997314,422.604462 541.957275,419.901520 
	C541.903076,416.244110 541.968262,412.584625 542.004456,408.926300 
	C542.022339,407.119049 542.429993,405.582489 544.678772,405.484985 
	C547.042297,405.382538 548.009277,406.728912 548.013916,408.865784 
	C548.040100,421.004547 548.041687,433.143463 548.008850,445.282227 
	C548.003418,447.278687 547.401489,448.997498 544.912659,448.885345 
	C542.492188,448.776245 541.983154,447.045197 541.959534,445.059143 
	C541.919983,441.733612 541.680420,438.383148 541.992004,435.087280 
	C542.438049,430.367401 540.422668,428.721313 535.948914,429.265778 
	C534.474365,429.445221 532.958801,429.287567 530.971191,429.284393 
z"/>
<path fill="#000000" opacity="1.000000" stroke="none" 
	d="
M660.276733,442.484467 
	C656.291016,434.880798 656.272156,427.714020 661.362366,421.084198 
	C665.204468,416.079926 672.525024,414.376923 679.111206,416.444794 
	C685.694031,418.511658 689.753174,424.296722 689.728577,431.122650 
	C689.718018,434.038025 688.087036,434.340332 685.873962,434.332397 
	C680.380310,434.312744 674.885986,434.292542 669.393066,434.359528 
	C667.615295,434.381195 665.733276,433.903320 664.091919,435.024506 
	C664.880066,441.965240 671.180420,445.884430 678.236023,443.781525 
	C679.649048,443.360413 681.032349,442.685577 682.275635,441.888031 
	C683.815430,440.900299 685.199646,440.104218 686.513672,442.074463 
	C687.983643,444.278687 686.369934,445.435059 684.880554,446.550903 
	C678.143738,451.598145 666.879761,449.852539 660.276733,442.484467 
M663.825317,428.645447 
	C670.333374,431.216431 676.836487,429.655151 683.513794,429.349792 
	C682.172058,423.724365 679.258606,420.947144 674.749268,420.432922 
	C669.882080,419.877869 666.326050,422.328003 663.825317,428.645447 
z"/>
<path fill="#000000" opacity="1.000000" stroke="none" 
	d="
M560.071106,443.869568 
	C555.042542,437.418304 554.544556,430.658752 558.044250,423.936035 
	C561.045654,418.170563 566.285583,415.550140 572.882629,415.656738 
	C580.689148,415.782928 586.255188,419.505463 588.586121,426.371582 
	C590.970764,433.395966 588.817505,441.728058 583.527954,445.944183 
	C578.304382,450.107727 569.655151,450.580353 563.803772,446.937408 
	C562.548340,446.155823 561.471680,445.087036 560.071106,443.869568 
M583.483398,436.541168 
	C584.035645,434.082886 584.108521,431.604584 583.621094,429.138184 
	C582.387085,422.894897 576.149658,419.138397 570.061462,420.931213 
	C564.551331,422.553772 561.833374,426.425201 561.939575,432.499847 
	C562.049744,438.801270 564.699097,442.453979 570.227173,443.926270 
	C575.392151,445.301849 579.568359,443.158630 583.483398,436.541168 
z"/>
<path fill="#000000" opacity="1.000000" stroke="none" 
	d="
M497.835693,449.062683 
	C490.838989,448.981567 490.753845,448.908905 490.741455,442.355835 
	C490.727020,434.731934 490.919464,427.102112 490.672516,419.486206 
	C490.523376,414.886261 493.426178,415.626434 496.241547,415.486023 
	C499.216766,415.337585 501.431854,415.461914 501.346924,419.456177 
	C501.167236,427.904938 501.280670,436.360107 501.291290,444.812653 
	C501.293976,446.955078 501.032043,448.863342 497.835693,449.062683 
z"/>
<path fill="#000000" opacity="1.000000" stroke="none" 
	d="
M501.548889,409.211517 
	C500.844696,410.010864 500.414703,410.542511 499.872131,410.906219 
	C496.768738,412.986420 493.827972,412.481049 491.302856,409.970459 
	C489.460693,408.138855 489.213898,405.834076 490.580414,403.566040 
	C492.241943,400.808350 494.813324,399.802948 497.846130,400.642059 
	C501.186951,401.566437 502.718140,403.922943 502.199463,407.441376 
	C502.127869,407.926819 501.917267,408.391785 501.548889,409.211517 
z"/>
<path fill="#000000" opacity="1.000000" stroke="none" 
	d="
M552.864502,310.939331 
	C545.256714,310.661102 538.066406,311.648071 531.045044,309.436035 
	C516.159912,304.746552 507.104950,291.236908 508.466919,275.760437 
	C508.737823,272.681885 510.422546,271.796783 513.081543,271.780426 
	C515.821350,271.763550 517.476807,272.767639 517.480103,275.869873 
	C517.487366,282.705170 518.912048,289.074646 523.891968,294.225403 
	C528.150513,298.630096 533.140259,301.176605 539.395569,301.065948 
	C545.225769,300.962769 551.063293,301.154572 556.889343,300.964264 
	C563.876038,300.736084 567.592957,296.880341 567.621094,289.886414 
	C567.680054,275.223694 567.617432,260.560486 567.610596,245.897491 
	C567.605408,234.794250 570.963562,231.347900 582.108032,230.954163 
	C583.231079,230.914505 584.348267,230.712738 586.151917,230.508942 
	C583.520447,227.173019 580.511536,225.147461 577.556519,223.224396 
	C569.968201,218.286194 566.779663,211.324570 567.092896,202.448929 
	C567.321899,195.959579 567.187195,189.453766 567.549316,182.973999 
	C567.800781,178.476242 566.278198,176.351990 561.616394,177.090561 
	C561.453918,177.116318 561.283691,177.092575 561.117065,177.093262 
	C550.397461,177.137833 551.379272,176.630417 551.309631,186.269714 
	C551.254822,193.863388 545.028687,197.500168 538.637512,193.367416 
	C531.938782,189.035858 525.615295,184.090469 519.352600,179.129593 
	C515.043701,175.716400 511.339874,175.506851 506.837280,178.964142 
	C485.041718,195.699692 463.090546,212.232574 441.208557,228.855713 
	C440.852325,229.126328 440.673004,229.629745 440.370239,230.086212 
	C441.801758,231.575241 443.559204,230.884766 445.112061,230.944778 
	C454.541962,231.309311 459.007080,235.892242 459.011139,245.436264 
	C459.017242,259.765961 458.970276,274.095642 458.960663,288.425323 
	C458.954315,297.883728 462.082733,301.029816 471.505493,301.045807 
	C480.503113,301.061127 489.501129,301.008789 498.498322,301.075775 
	C501.813263,301.100494 505.241180,301.542786 505.133423,305.963989 
	C505.031586,310.141968 501.871094,310.943848 498.427002,310.944244 
	C488.763000,310.945343 479.092316,311.126617 469.436676,310.831024 
	C457.282227,310.458923 449.972961,302.742859 449.482361,290.487701 
	C448.908997,276.165405 448.889160,261.846710 449.443054,247.525330 
	C449.681580,241.357178 448.370148,240.033051 442.224609,240.588440 
	C439.220123,240.859955 436.253387,241.133362 433.293823,240.332321 
	C429.938110,239.424057 427.726288,237.297195 426.968994,233.928741 
	C426.208893,230.547562 427.266327,227.592453 430.024567,225.486633 
	C454.254761,206.987518 478.433350,188.418854 502.818756,170.126144 
	C509.787537,164.898544 516.423157,165.249268 523.671936,170.304688 
	C529.346130,174.261993 534.826172,178.497650 540.334473,182.566742 
	C541.002014,181.848618 541.380981,181.635132 541.416382,181.374924 
	C543.153992,168.592270 544.878540,167.112717 558.090088,167.123535 
	C575.932495,167.138153 577.207764,168.435913 577.183594,186.534424 
	C577.175842,192.366257 577.429016,198.212738 577.091675,204.025192 
	C576.829224,208.547028 578.574585,211.631134 582.069702,214.194702 
	C586.366638,217.346344 590.513245,220.702499 594.736572,223.955093 
	C598.506470,226.858551 600.583679,230.526398 598.876038,235.259140 
	C597.253174,239.756851 593.338257,240.494385 589.052734,240.423462 
	C574.844360,240.188324 577.301208,240.484421 577.205322,252.183594 
	C577.109680,263.846558 577.193909,275.510925 577.186829,287.174683 
	C577.176819,303.639587 570.007812,310.780548 552.864502,310.939331 
z"/>
<path fill="#000000" opacity="1.000000" stroke="none" 
	d="
M503.594116,245.955475 
	C507.181946,239.894485 510.975952,238.009705 515.862061,239.556702 
	C520.412415,240.997391 523.347656,245.015182 523.227295,249.638275 
	C523.079346,255.320221 517.932251,259.814270 512.177002,259.286652 
	C505.878235,258.709198 502.293762,253.376648 503.594116,245.955475 
z"/>
</svg>